<svg width="68" height="68" viewBox="0 0 68 68" fill="none" xmlns="http://www.w3.org/2000/svg">
<path d="M62.3332 28.3333H5.6665M31.1665 53.8333L53.2665 53.8333C56.4401 53.8333 58.0269 53.8333 59.2391 53.2157C60.3054 52.6724 61.1723 51.8055 61.7155 50.7393C62.3332 49.5271 62.3332 47.9403 62.3332 44.7667V23.2333C62.3332 20.0597 62.3332 18.4729 61.7155 17.2607C61.1723 16.1945 60.3054 15.3276 59.2391 14.7843C58.0269 14.1667 56.4401 14.1667 53.2665 14.1667H48.1665M31.1665 53.8333L36.8332 59.5M31.1665 53.8333L36.8332 48.1667M19.8332 53.8333H14.7332C11.5595 53.8333 9.97272 53.8333 8.76056 53.2157C7.69431 52.6724 6.82742 51.8055 6.28413 50.7393C5.6665 49.5271 5.6665 47.9403 5.6665 44.7667V23.2333C5.6665 20.0597 5.6665 18.4729 6.28413 17.2607C6.82742 16.1945 7.69431 15.3276 8.76056 14.7843C9.97273 14.1667 11.5595 14.1667 14.7332 14.1667H36.8332M36.8332 14.1667L31.1665 19.8333M36.8332 14.1667L31.1665 8.5" stroke="black" stroke-width="5.66667" stroke-linecap="round" stroke-linejoin="round"/>
</svg>
