<svg width="68" height="68" viewBox="0 0 68 68" fill="none" xmlns="http://www.w3.org/2000/svg">
<path d="M21.25 22.6667V26.9167M46.75 22.6667V26.9167M31.1667 35.7003C33.4333 35.7003 35.4167 33.7169 35.4167 31.4503V22.6667M43.0672 43.0665C37.9672 48.1665 29.7506 48.1665 24.6506 43.0665M8.5 22.1L8.5 45.9C8.5 50.6604 8.5 53.0407 9.42644 54.8589C10.2414 56.4583 11.5417 57.7586 13.1411 58.5735C14.9593 59.5 17.3396 59.5 22.1 59.5H45.9C50.6604 59.5 53.0407 59.5 54.8589 58.5736C56.4583 57.7586 57.7586 56.4583 58.5736 54.8589C59.5 53.0407 59.5 50.6604 59.5 45.9V22.1C59.5 17.3396 59.5 14.9593 58.5736 13.1411C57.7586 11.5417 56.4583 10.2414 54.8589 9.42645C53.0407 8.5 50.6604 8.5 45.9 8.5L22.1 8.5C17.3396 8.5 14.9593 8.5 13.1411 9.42644C11.5417 10.2414 10.2414 11.5417 9.42645 13.1411C8.5 14.9593 8.5 17.3396 8.5 22.1Z" stroke="black" stroke-width="5.66667" stroke-linecap="round" stroke-linejoin="round"/>
</svg>
