<svg width="165" height="75" viewBox="0 0 165 75" fill="none" xmlns="http://www.w3.org/2000/svg">
<path d="M12.9303 0C19.5571 0 24.6894 5.0999 24.6894 11.6943C24.6894 18.4509 19.5571 23.713 12.9303 23.713C6.30346 23.713 1.13867 18.4509 1.13867 11.6943C1.13676 5.0999 6.30155 0 12.9303 0ZM12.9303 20.7565C17.6084 20.7565 21.376 16.859 21.376 11.6923C21.376 6.68979 17.6084 2.92213 12.9303 2.92213C8.25219 2.92213 4.45208 6.68979 4.45208 11.6923C4.45017 16.859 8.25219 20.7565 12.9303 20.7565Z" fill="#FF5900"/>
<path d="M36.4814 0.38916H44.5054C48.3704 0.38916 51.1646 2.53257 51.1646 6.23724C51.1646 8.47799 50.0595 10.2645 48.3055 11.1749V11.2398C50.7085 11.9555 52.0731 14.2287 52.0731 16.7939C52.0731 21.1151 48.7273 23.3234 44.7001 23.3234H36.4814V0.38916ZM44.5035 10.0374C46.582 10.0374 47.8818 8.57533 47.8818 6.56171C47.8818 4.54809 46.6469 3.18341 44.4386 3.18341H39.6956V10.0374H44.5035ZM44.8623 20.5292C47.3302 20.5292 48.7922 18.9698 48.7922 16.6317C48.7922 14.2936 47.2328 12.7018 44.8279 12.7018H39.6956V20.5311H44.8623V20.5292Z" fill="#FF5900"/>
<path d="M64.2021 0.38916H71.2183C73.6213 0.38916 74.6291 0.583842 75.507 0.908311C77.8451 1.78629 79.372 4.09193 79.372 7.11331C79.372 10.0374 77.7478 12.5052 75.2475 13.3183V13.3832C75.2475 13.3832 75.507 13.6752 75.9289 14.4234L80.8016 23.3234H77.1637L72.3234 14.1944H67.4182V23.3215H64.2021V0.38916ZM72.0314 11.402C74.5317 11.402 76.0911 9.81022 76.0911 7.24501C76.0911 5.55586 75.4422 4.35341 74.2722 3.70447C73.6557 3.38 72.9075 3.18532 71.121 3.18532H67.4182V11.4039H72.0314V11.402Z" fill="#FF5900"/>
<path d="M104.538 16.7291H95.8971L93.6239 23.3234H90.3105L98.5616 0.38916H101.94L110.191 23.3234H106.845L104.538 16.7291ZM100.218 3.54033C100.218 3.54033 99.6992 5.61884 99.3079 6.78884L96.7427 14.0646H103.694L101.159 6.78884C100.77 5.61884 100.283 3.54033 100.283 3.54033H100.218Z" fill="#FF5900"/>
<path d="M12.8642 27.6104C18.3534 27.6104 21.2126 30.3722 21.2126 30.3722L19.5883 32.7751C19.5883 32.7751 17.0231 30.5344 13.1238 30.5344C7.73184 30.5344 4.48333 34.4643 4.48333 39.3695C4.48333 44.6965 8.1212 48.3668 12.9291 48.3668C16.8914 48.3668 19.4261 45.5077 19.4261 45.5077V42.1943H15.6909V39.4H22.3501V50.9321H19.5234V49.5025C19.5234 49.0158 19.5559 48.5272 19.5559 48.5272H19.491C19.491 48.5272 16.9907 51.3214 12.4424 51.3214C6.26982 51.3214 1.16992 46.4487 1.16992 39.4325C1.16992 32.8076 6.17248 27.6104 12.8642 27.6104Z" fill="#FF5900"/>
<path d="M34.1494 28.0015H41.1656C43.5686 28.0015 44.5763 28.1961 45.4543 28.5206C47.7924 29.3986 49.3193 31.7042 49.3193 34.7256C49.3193 37.6497 47.6951 40.1175 45.1947 40.9306V40.9955C45.1947 40.9955 45.4543 41.2875 45.8761 42.0357L50.7489 50.9357H47.111L42.2707 41.8086H37.3655V50.9357H34.1494V28.0015ZM41.9787 39.0124C44.479 39.0124 46.0384 37.4206 46.0384 34.8554C46.0384 33.1663 45.3894 31.9638 44.2194 31.3149C43.6029 30.9904 42.8547 30.7957 41.0682 30.7957H37.3655V39.0143H41.9787V39.0124Z" fill="#FF5900"/>
<path d="M61.1143 28.0015H64.3303V42.8144C64.3303 46.3225 66.6035 48.3686 70.1116 48.3686C73.6521 48.3686 75.9597 46.3225 75.9597 42.7496V28.0015H79.1757V42.8144C79.1757 47.9143 75.5054 51.3251 70.144 51.3251C64.7846 51.3251 61.1143 47.9143 61.1143 42.8144V28.0015Z" fill="#FF5900"/>
<path d="M91.8662 28.0015H105.185V30.7957H95.0823V37.9741H103.301V40.7684H95.0823V48.1415H105.738V50.9357H91.8681V28.0015H91.8662Z" fill="#FF5900"/>
<path d="M117.797 45.8665C117.797 45.8665 120.233 48.3344 123.644 48.3344C125.787 48.3344 127.608 47.1319 127.608 44.9561C127.608 39.9859 116.498 41.0586 116.498 34.0081C116.498 30.4351 119.584 27.6084 123.903 27.6084C128.159 27.6084 130.4 29.914 130.4 29.914L128.938 32.5785C128.938 32.5785 126.827 30.5973 123.903 30.5973C121.468 30.5973 119.746 32.1242 119.746 33.9432C119.746 38.6862 130.856 37.4188 130.856 44.8568C130.856 48.3973 128.127 51.3214 123.581 51.3214C118.708 51.3214 115.979 48.3 115.979 48.3L117.797 45.8665Z" fill="#FF5900"/>
<path d="M154.714 44.3399H146.074L143.801 50.9343H140.487L148.738 28H152.117L160.368 50.9343H157.022L154.714 44.3399ZM150.395 31.1531C150.395 31.1531 149.876 33.2316 149.485 34.4016L146.919 41.6773H153.871L151.336 34.4016C150.947 33.2316 150.46 31.1531 150.46 31.1531H150.395Z" fill="#FF5900"/>
<path d="M6.04658 71.7361H2.37435L1.40858 74.538H0L3.50618 64.7925H4.94148L8.44765 74.538H7.02572L6.04658 71.7361ZM4.21047 66.1304C4.21047 66.1304 3.98906 67.0141 3.82492 67.5104L2.73509 70.6024H5.68776L4.61128 67.5104C4.44523 67.0141 4.2391 66.1304 4.2391 66.1304H4.21047Z" fill="#FF5900"/>
<path d="M8.60547 64.7925H11.5868C12.6079 64.7925 13.0373 64.8745 13.4095 65.0139C14.4039 65.3861 15.0529 66.3671 15.0529 67.6497C15.0529 68.8922 14.3619 69.942 13.2988 70.2875V70.3142C13.2988 70.3142 13.4095 70.4382 13.5889 70.7551L15.6598 74.538H14.1138L12.0563 70.6596H9.97206V74.538H8.60547V64.7925ZM11.9322 69.4706C12.9953 69.4706 13.6576 68.7949 13.6576 67.7032C13.6576 66.9855 13.3809 66.474 12.8846 66.1991C12.6213 66.0617 12.3044 65.9777 11.5448 65.9777H9.97015V69.4706H11.9322Z" fill="#FF5900"/>
<path d="M18.2347 65.9782H14.8945V64.791H22.9433V65.9782H19.6032V74.5385H18.2366V65.9782H18.2347Z" fill="#FF5900"/>
<path d="M23.0791 64.7925H28.7401V65.9797H24.4456V69.0316H27.9385V70.2188H24.4456V73.3527H28.9729V74.5399H23.0771V64.7925H23.0791Z" fill="#FF5900"/>
<path d="M36.413 64.6265H42.0741V65.8136H37.7796V68.8656H41.2724V70.0527H37.7796V73.1867H42.3069V74.3739H36.4111V64.6265H36.413Z" fill="#FF5900"/>
<path d="M42.7305 64.6265H45.9599C48.9412 64.6265 50.9014 66.4072 50.9014 69.4859C50.9014 72.5779 48.9412 74.372 45.9599 74.372H42.7305V64.6265ZM45.8645 73.1848C48.0594 73.1848 49.4947 71.8869 49.4947 69.4859C49.4947 67.0982 48.046 65.8136 45.8645 65.8136H44.0971V73.1848H45.8645Z" fill="#FF5900"/>
<path d="M51.5175 64.6265H52.8841V70.9212C52.8841 72.4118 53.8499 73.2822 55.3405 73.2822C56.8446 73.2822 57.8256 72.4118 57.8256 70.8945V64.6265H59.1922V70.9212C59.1922 73.0894 57.6328 74.5381 55.3539 74.5381C53.075 74.5381 51.5156 73.0875 51.5156 70.9212V64.6265H51.5175Z" fill="#FF5900"/>
<path d="M64.7067 64.4604C67.0544 64.4604 68.2549 65.745 68.2549 65.745L67.5793 66.7661C67.5793 66.7661 66.4474 65.703 64.7621 65.703C62.5805 65.703 61.1586 67.3597 61.1586 69.4306C61.1586 71.5148 62.6072 73.2822 64.7755 73.2822C66.6116 73.2822 67.7854 72.013 67.7854 72.013L68.5164 72.994C68.5164 72.994 67.1765 74.54 64.7335 74.54C61.8075 74.54 59.75 72.3031 59.75 69.4458C59.75 66.6134 61.8762 64.4604 64.7067 64.4604Z" fill="#FF5900"/>
<path d="M74.0798 71.5701H70.4076L69.4418 74.372H68.0332L71.5394 64.6265H72.9747L76.4809 74.372H75.0589L74.0798 71.5701ZM72.2437 65.9644C72.2437 65.9644 72.0223 66.8481 71.8581 67.3444L70.7683 70.4364H73.7229L72.6464 67.3444C72.4803 66.8481 72.2742 65.9644 72.2742 65.9644H72.2437Z" fill="#FF5900"/>
<path d="M80.6267 64.4604C82.9743 64.4604 84.1748 65.745 84.1748 65.745L83.4992 66.7661C83.4992 66.7661 82.3674 65.703 80.682 65.703C78.5004 65.703 77.0785 67.3597 77.0785 69.4306C77.0785 71.5148 78.5272 73.2822 80.6954 73.2822C82.5315 73.2822 83.7053 72.013 83.7053 72.013L84.4363 72.994C84.4363 72.994 83.0965 74.54 80.6534 74.54C77.7274 74.54 75.6699 72.3031 75.6699 69.4458C75.6699 66.6134 77.7962 64.4604 80.6267 64.4604Z" fill="#FF5900"/>
<path d="M84.7832 64.6265H86.1498V74.372H84.7832V64.6265Z" fill="#FF5900"/>
<path d="M91.8168 64.4604C94.6339 64.4604 96.8155 66.6286 96.8155 69.4305C96.8155 72.3011 94.6339 74.5381 91.8168 74.5381C89.0015 74.5381 86.8047 72.3011 86.8047 69.4305C86.8066 66.6267 89.0015 64.4604 91.8168 64.4604ZM91.8168 73.2822C93.8056 73.2822 95.4069 71.6255 95.4069 69.4305C95.4069 67.3043 93.8056 65.703 91.8168 65.703C89.8299 65.703 88.2133 67.3043 88.2133 69.4305C88.2152 71.6255 89.8299 73.2822 91.8168 73.2822ZM92.231 62.1968H93.6663L92.3417 63.9508H91.2232L92.231 62.1968Z" fill="#FF5900"/>
<path d="M97.4755 64.6265H98.8288L103.163 70.9632C103.522 71.488 103.978 72.3717 103.978 72.3717H104.005C104.005 72.3717 103.908 71.5014 103.908 70.9632V64.6265H105.274V74.372H103.934L99.5865 68.0487C99.2277 67.5104 98.7715 66.6267 98.7715 66.6267H98.7429C98.7429 66.6267 98.8402 67.4971 98.8402 68.0487V74.372H97.4736V64.6265H97.4755Z" fill="#FF5900"/>
<path d="M116.918 64.4604C119.265 64.4604 120.466 65.745 120.466 65.745L119.79 66.7661C119.79 66.7661 118.658 65.703 116.973 65.703C114.791 65.703 113.37 67.3597 113.37 69.4306C113.37 71.5148 114.818 73.2822 116.986 73.2822C118.823 73.2822 119.996 72.013 119.996 72.013L120.727 72.994C120.727 72.994 119.387 74.54 116.944 74.54C114.018 74.54 111.961 72.3031 111.961 69.4458C111.961 66.6134 114.087 64.4604 116.918 64.4604Z" fill="#FF5900"/>
<path d="M120.738 64.6265H122.105V70.9212C122.105 72.4118 123.071 73.2822 124.561 73.2822C126.065 73.2822 127.046 72.4118 127.046 70.8945V64.6265H128.413V70.9212C128.413 73.0894 126.854 74.5381 124.575 74.5381C122.296 74.5381 120.736 73.0875 120.736 70.9212V64.6265H120.738Z" fill="#FF5900"/>
<path d="M129.459 64.6265H130.826V73.1848H135.189V74.372H129.459V64.6265Z" fill="#FF5900"/>
<path d="M136.231 65.8136H132.891V64.6265H140.939V65.8136H137.599V74.3739H136.233V65.8136H136.231Z" fill="#FF5900"/>
<path d="M140.798 64.6265H142.164V70.9212C142.164 72.4118 143.13 73.2822 144.623 73.2822C146.127 73.2822 147.108 72.4118 147.108 70.8945V64.6265H148.474V70.9212C148.474 73.0894 146.915 74.5381 144.636 74.5381C142.357 74.5381 140.798 73.0875 140.798 70.9212V64.6265Z" fill="#FF5900"/>
<path d="M149.519 64.6265H152.5C153.521 64.6265 153.95 64.7085 154.323 64.8479C155.317 65.2201 155.966 66.2011 155.966 67.4837C155.966 68.7262 155.275 69.776 154.212 70.1215V70.1482C154.212 70.1482 154.323 70.2722 154.502 70.5891L156.573 74.372H155.027L152.969 70.4936H150.885V74.372H149.519V64.6265ZM152.847 69.3065C153.91 69.3065 154.573 68.6308 154.573 67.5391C154.573 66.8214 154.296 66.3099 153.8 66.035C153.536 65.8976 153.219 65.8136 152.46 65.8136H150.885V69.3065H152.847Z" fill="#FF5900"/>
<path d="M162.146 71.5701H158.474L157.508 74.372H156.1L159.606 64.6265H161.041L164.547 74.372H163.125L162.146 71.5701ZM160.31 65.9644C160.31 65.9644 160.089 66.8481 159.925 67.3444L158.835 70.4364H161.789L160.713 67.3444C160.547 66.8481 160.341 65.9644 160.341 65.9644H160.31Z" fill="#FF5900"/>
<path d="M163.904 14.9141H112.642V18.5958H163.904V14.9141Z" fill="#FF5900"/>
</svg>
